<?xml version="1.0" encoding="UTF-8" standalone="no"?>
<svg
   xmlns:dc="http://purl.org/dc/elements/1.1/"
   xmlns:cc="http://creativecommons.org/ns#"
   xmlns:rdf="http://www.w3.org/1999/02/22-rdf-syntax-ns#"
   xmlns:svg="http://www.w3.org/2000/svg"
   xmlns="http://www.w3.org/2000/svg"
   xmlns:xlink="http://www.w3.org/1999/xlink"
   xmlns:sodipodi="http://sodipodi.sourceforge.net/DTD/sodipodi-0.dtd"
   xmlns:inkscape="http://www.inkscape.org/namespaces/inkscape"
   viewBox="0 0 500 500"
   version="1.1"
   id="svg4547"
   sodipodi:docname="clock.svg"
   width="500"
   height="500"
   inkscape:version="0.92.1 r15371">
  <metadata
     id="metadata4551">
    <rdf:RDF>
      <cc:Work
         rdf:about="">
        <dc:format>image/svg+xml</dc:format>
        <dc:type
           rdf:resource="http://purl.org/dc/dcmitype/StillImage" />
        <dc:title></dc:title>
      </cc:Work>
    </rdf:RDF>
  </metadata>
  <sodipodi:namedview
     pagecolor="#ffffff"
     bordercolor="#666666"
     borderopacity="1"
     objecttolerance="10"
     gridtolerance="10"
     guidetolerance="10"
     inkscape:pageopacity="0"
     inkscape:pageshadow="2"
     inkscape:window-width="1861"
     inkscape:window-height="1056"
     id="namedview4549"
     showgrid="false"
     inkscape:zoom="5.8585859"
     inkscape:cx="277.40153"
     inkscape:cy="309.51001"
     inkscape:window-x="59"
     inkscape:window-y="24"
     inkscape:window-maximized="1"
     inkscape:current-layer="svg4547" />
  <defs
     id="defs4491">
    <linearGradient
       id="a">
      <stop
         offset="0"
         stop-color="#fff"
         id="stop4485" />
      <stop
         offset="1"
         stop-color="#ececec"
         id="stop4487" />
    </linearGradient>
    <radialGradient
       id="b"
       cx="170.08"
       cy="224.67"
       r="99.800003"
       xlink:href="#a"
       fx="170.08"
       fy="224.67"
       gradientUnits="userSpaceOnUse"
       gradientTransform="matrix(0.8468,-0.89797,0.65565,0.6183,-68.617493,312.67931)" />
  </defs>
  <circle
     cx="256.5795"
     cy="246.85931"
     r="98.650002"
     stroke-miterlimit="43.6"
     id="circle4497"
     style="fill:url(#b);stroke:#000000;stroke-width:2.29999995;stroke-linecap:round;stroke-linejoin:round;stroke-miterlimit:43.59999847" />
  <path
     d="m 255.05951,148.64931 h 3.05 v 11.42 h -3.06 z m 0,185.8 h 3.05 v 11.43 h -3.06 z m -97.1,-86.06 v -3.06 h 11.43 v 3.06 z m 185.8,0 v -3.06 h 11.43 v 3.06 z m -171.82,49.5 -1.53,-2.64 9.9,-5.7 1.53,2.64 z m 160.92,-92.9 -1.54,-2.64 9.9,-5.7 1.53,2.64 z m -124.26,128.45 -2.65,-1.53 5.7,-9.9 2.6,1.53 z m 92.9,-160.9 -2.65,-1.54 5.7,-9.9 2.6,1.54 z m 5.7,159.38 -2.64,1.53 -5.72,-9.9 2.65,-1.53 z m -92.9,-160.9 -2.64,1.52 -5.72,-9.9 2.65,-1.53 z m 128.46,124.22 -1.54,2.65 -9.9,-5.7 1.53,-2.66 z m -160.92,-92.9 -1.53,2.66 -9.9,-5.7 1.53,-2.66 z m 63,-53.1 1.56,-0.17 0.68,6.02 -1.57,0.18 z m 21.22,188.9 1.57,-0.2 0.68,6 -1.57,0.2 z m -32.43,-186.87 1.54,-0.36 1.4,5.9 -1.5,0.36 z m 42.98,185.15 1.53,-0.35 1.37,5.9 -1.53,0.36 z m -53.5,-182 1.5,-0.52 2,5.7 -1.5,0.54 z m 63.42,179.2 1.5,-0.52 2,5.7 -1.48,0.54 z m -71.74,-175.73 1.43,-0.66 2.54,5.5 -1.43,0.66 z m 79.57,172.62 1.44,-0.66 2.54,5.5 -1.43,0.66 z m -96.08,-162.77 1.28,-0.93 3.56,4.9 -1.28,0.93 z m 111.74,153.78 1.27,-0.93 3.57,4.9 -1.28,0.94 z m -120.48,-146.5 1.16,-1.06 4.1,4.4 -1.16,1.1 z m 128.8,139.8 1.15,-1.07 4.1,4.46 -1.15,1.07 z m -136.38,-131.85 1.02,-1.2 4.58,4 -1.04,1.2 z m 143.62,124.52 1.03,-1.2 4.58,3.97 -1.04,1.2 z m -149.15,-117.42 0.92,-1.27 4.9,3.53 -0.9,1.3 z m 154.43,110.84 0.92,-1.3 4.93,3.54 -0.92,1.3 z m -164.34,-93.16 0.64,-1.45 5.54,2.45 -0.63,1.45 z m 173.9,76.74 0.64,-1.44 5.54,2.44 -0.63,1.45 z m -177.8,-66.05 0.47,-1.5 5.8,1.78 -0.47,1.5 z m 181.64,56.08 0.45,-1.5 5.8,1.78 -0.47,1.5 z m -184.2,-45.4 0.3,-1.54 5.95,1.2 -0.3,1.57 z m 186.76,35.42 0.3,-1.56 5.94,1.2 -0.3,1.58 z m -187.96,-26.5 0.16,-1.56 6.03,0.6 -0.2,1.6 z m 189.22,18.15 0.15,-1.57 6.03,0.57 -0.15,1.58 z m -189.02,1.08 -0.15,-1.57 6.03,-0.6 0.16,1.56 z m 189.13,-19.12 -0.16,-1.58 6.03,-0.6 0.16,1.57 z m -187.23,30.35 -0.34,-1.54 5.92,-1.4 0.34,1.55 z m 185.63,-40.9 -0.34,-1.55 5.9,-1.3 0.3,1.54 z m -182.58,51.44 -0.5,-1.5 5.73,-1.95 0.5,1.5 z m 179.9,-61.4 -0.5,-1.5 5.7,-1.97 0.5,1.5 z m -176.55,69.75 -0.65,-1.45 5.53,-2.47 0.65,1.46 z m 173.5,-77.64 -0.63,-1.44 5.53,-2.48 0.65,1.45 z m -162.73,95.74 -0.94,-1.28 4.87,-3.6 0.94,1.28 z m 152.93,-112.87 -0.93,-1.27 4.88,-3.6 0.94,1.27 z m -145.58,121.55 -1.08,-1.15 4.42,-4.13 1.08,1.15 z m 138.83,-129.82 -1.08,-1.15 4.43,-4.14 1.08,1.1 z m -130.83,137.36 -1.2,-1.03 3.93,-4.6 1.2,1.1 z m 123.44,-144.54 -1.2,-1.03 3.93,-4.6 1.2,1.02 z m -116.3,150 -1.3,-0.9 3.5,-4.95 1.3,0.9 z m 109.7,-155.24 -1.3,-0.9 3.5,-4.96 1.3,0.9 z m -92.9,164.6 -1.43,-0.63 2.46,-5.54 1.4,0.6 z m 77.3,-173.66 -1.45,-0.64 2.5,-5.53 1.46,0.64 z m -66.6,177.6 -1.5,-0.46 1.8,-5.8 1.5,0.48 z m 56.64,-181.45 -1.5,-0.47 1.8,-5.78 1.5,0.47 z m -46,184.05 -1.55,-0.3 1.14,-5.96 1.6,0.3 z m 36,-186.65 -1.55,-0.3 1.15,-5.95 1.55,0.3 z m -27.07,187.87 -1.57,-0.15 0.6,-6.03 1.57,0.15 z m 18.73,-189.15 -1.58,-0.16 0.6,-6 1.57,0.2 z"
     id="path4499"
     inkscape:connector-curvature="0"
     style="fill-rule:evenodd" />
  <text
     x="323.7095"
     y="210.26932"
     style="font-size:10.57999992px;line-height:125%;font-family:sans-serif;letter-spacing:0;word-spacing:0;stroke-width:0.25999999"
     font-size="10.58"
     letter-spacing="0"
     word-spacing="0"
     id="text4503">
    <tspan
       x="323.7095"
       y="210.26932"
       id="tspan4501">2</tspan>
  </text>
  <text
     x="335.19949"
     y="250.70932"
     style="font-size:10.57999992px;line-height:125%;font-family:sans-serif;letter-spacing:0;word-spacing:0;stroke-width:0.25999999"
     font-size="10.58"
     letter-spacing="0"
     word-spacing="0"
     id="text4507">
    <tspan
       x="335.19949"
       y="250.70932"
       id="tspan4505">3</tspan>
  </text>
  <text
     x="323.09949"
     y="291.60931"
     style="font-size:10.57999992px;line-height:125%;font-family:sans-serif;letter-spacing:0;word-spacing:0;stroke-width:0.25999999"
     font-size="10.58"
     letter-spacing="0"
     word-spacing="0"
     id="text4511">
    <tspan
       x="323.09949"
       y="291.60931"
       id="tspan4509">4</tspan>
  </text>
  <text
     x="294.06949"
     y="320.63931"
     style="font-size:10.57999992px;line-height:125%;font-family:sans-serif;letter-spacing:0;word-spacing:0;stroke-width:0.25999999"
     font-size="10.58"
     letter-spacing="0"
     word-spacing="0"
     id="text4515">
    <tspan
       x="294.06949"
       y="320.63931"
       id="tspan4513">5</tspan>
  </text>
  <text
     x="253.1795"
     y="331.2193"
     style="font-size:10.57999992px;line-height:125%;font-family:sans-serif;letter-spacing:0;word-spacing:0;stroke-width:0.25999999"
     font-size="10.58"
     letter-spacing="0"
     word-spacing="0"
     id="text4519">
    <tspan
       x="253.1795"
       y="331.2193"
       id="tspan4517">6</tspan>
  </text>
  <text
     x="213.33951"
     y="320.32932"
     style="font-size:10.57999992px;line-height:125%;font-family:sans-serif;letter-spacing:0;word-spacing:0;stroke-width:0.25999999"
     font-size="10.58"
     letter-spacing="0"
     word-spacing="0"
     id="text4523">
    <tspan
       x="213.33951"
       y="320.32932"
       id="tspan4521">7</tspan>
  </text>
  <text
     x="183.0995"
     y="291.60931"
     style="font-size:10.57999992px;line-height:125%;font-family:sans-serif;letter-spacing:0;word-spacing:0;stroke-width:0.25999999"
     font-size="10.58"
     letter-spacing="0"
     word-spacing="0"
     id="text4527">
    <tspan
       x="183.0995"
       y="291.60931"
       id="tspan4525">8</tspan>
  </text>
  <text
     x="171.30951"
     y="250.70932"
     style="font-size:10.57999992px;line-height:125%;font-family:sans-serif;letter-spacing:0;word-spacing:0;stroke-width:0.25999999"
     font-size="10.58"
     letter-spacing="0"
     word-spacing="0"
     id="text4531">
    <tspan
       x="171.30951"
       y="250.70932"
       id="tspan4529">9</tspan>
  </text>
  <text
     x="212.1295"
     y="180.6293"
     style="font-size:10.57999992px;line-height:125%;font-family:sans-serif;letter-spacing:0;word-spacing:0;stroke-width:0.25999999"
     font-size="10.58"
     letter-spacing="0"
     word-spacing="0"
     id="text4535">
    <tspan
       x="212.1295"
       y="180.6293"
       id="tspan4533">11</tspan>
  </text>
  <text
     x="250.08951"
     y="170.04932"
     style="font-size:10.57999992px;line-height:125%;font-family:sans-serif;letter-spacing:0;word-spacing:0;stroke-width:0.25999999"
     font-size="10.58"
     letter-spacing="0"
     word-spacing="0"
     id="text4539">
    <tspan
       x="250.08951"
       y="170.04932"
       id="tspan4537">12</tspan>
  </text>
  <text
     x="182.7995"
     y="210.86932"
     style="font-size:10.57999992px;line-height:125%;font-family:sans-serif;letter-spacing:0;word-spacing:0;stroke-width:0.25999999"
     font-size="10.58"
     letter-spacing="0"
     word-spacing="0"
     id="text4543">
    <tspan
       x="182.7995"
       y="210.86932"
       id="tspan4541">10</tspan>
  </text>
  <circle
     cx="256.5795"
     cy="246.85931"
     r="6.6500001"
     id="circle4545"
     style="fill-rule:evenodd" />
</svg>
