<svg xmlns="http://www.w3.org/2000/svg" xmlns:xlink="http://www.w3.org/1999/xlink" viewBox="0 0 507.01 506.26">
  <defs>
    <linearGradient id="a">
      <stop offset="0" stop-color="#fff"/>
      <stop offset="1" stop-color="#ececec"/>
    </linearGradient>
    <radialGradient id="b" cx="97.66" cy="79.6" r="36.48" xlink:href="#a" gradientUnits="userSpaceOnUse" gradientTransform="matrix(3.75387 -1.41533 1.32814 3.52277 -374.666 -62.608)" fx="97.66" fy="79.6"/>
  </defs>
  <g stroke-width=".14" transform="matrix(6.94878 0 0 6.93846 -421.222 -300.424)">
    <circle cx="97.1" cy="79.78" r="36.48" fill="url(#b)" fill-rule="evenodd"/>
    <path fill-rule="evenodd" d="M60.95 79.32h7.38v.94h-7.38zm4.6 18.14l6.4-3.7.47.82-6.4 3.7zm13.05 13.4l3.7-6.4.82.48-3.7 6.4zm18.03 5.07v-7.38h.94v7.38zm18.13-4.6l-3.7-6.4.82-.47 3.7 6.4zm13.4-13.06l-6.4-3.7.5-.8 6.4 3.68zm5.08-18.02h-7.38v-.94h7.38zm-4.6-18.13l-6.4 3.7-.47-.83 6.4-3.7zm-13.06-13.4l-3.7 6.4-.8-.48 3.68-6.4zm-18.02-5.08v7.38h-.94v-7.38zm-18.13 4.6l3.7 6.4-.83.47-3.7-6.3zM66.03 61.3l6.4 3.7-.5.8-6.4-3.68z"/>
    <path fill="none" d="M61.2 79.6h2.33v.37H61.2z"/>
    <path fill-rule="evenodd" d="M61.45 83.38l1.56-.16.1.28-1.52.16zm.57 3.72l1.54-.33.06.28-1.54.32zm.96 3.62l1.5-.5.08.28-1.5.5zm1.32 3.5l1.44-.63.1.2-1.42.6zm3.73 6.5l1.27-.9.17.22-1.27.93zm2.35 2.94l1.17-1.05.2.3-1.18 1.07zm2.64 2.66l1.05-1.17.2.2-1.04 1.16zm2.9 2.38l.93-1.27.23.16-.92 1.2zm6.48 3.77l.64-1.44.25.12-.7 1.43zm3.5 1.36l.5-1.5.25.1-.48 1.48zm3.62.97l.32-1.53.28.06-.33 1.54zm3.7.62l.17-1.56.2.02-.2 1.57zm7.5.02l-.17-1.56.28-.03.17 1.57zm3.7-.57l-.32-1.54.27-.05.33 1.53zm3.63-.95l-.48-1.5.26-.08.5 1.5zm3.5-1.34l-.63-1.43.25-.12.64 1.44zm6.52-3.72l-.93-1.27.23-.2.92 1.2zm2.93-2.36l-1.06-1.15.2-.2 1.05 1.17zm2.65-2.63l-1.17-1.05.2-.2 1.16 1.04zm2.37-2.9l-1.27-.93.17-.22 1.27.92zm3.78-6.47l-1.44-.65.12-.25 1.43.64zm1.35-3.5l-1.5-.5.1-.26 1.5.5zm1-3.63l-1.54-.32.1-.28 1.6.33zm.6-3.7l-1.57-.17.03-.28 1.6.17zm.02-7.5l-1.56.17v-.28l1.6-.16zm-.57-3.7l-1.54.32-.06-.3 1.54-.4zm-.95-3.63l-1.5.5-.08-.28 1.5-.48zm-1.35-3.5l-1.42.63-.12-.26 1.44-.6zm-3.7-6.52l-1.28.93-.17-.23 1.27-.92zm-2.36-2.92l-1.17 1.06-.2-.2 1.18-1.06zm-2.64-2.66l-1.06 1.17-.2-.1 1.06-1.2zm-2.9-2.37l-.93 1.27-.23-.17.93-1.27zm-6.5-3.77l-.62 1.42-.26-.1.64-1.44zm-3.48-1.36l-.5 1.5-.25-.1.48-1.5zm-3.62-.98l-.32 1.53-.28-.1.33-1.6zm-3.7-.6l-.17 1.55h-.27l.16-1.5zm-7.5-.04l.17 1.56-.28.03-.2-1.5zm-3.7.58l.32 1.53-.27.06-.33-1.6zm-3.64.95l.5 1.5-.28.08-.48-1.5zm-3.5 1.33l.63 1.44-.3.1-.7-1.42zm-6.5 3.72l.92 1.27-.23.16-.92-1.27zm-2.93 2.36l1.05 1.16-.2.2-1.08-1.2zm-2.66 2.64l1.17 1.05-.2.2-1.16-1.05zm-2.37 2.9l1.27.92-.16.23-1.2-.92zm-3.78 6.48l1.43.64-.1.25-1.44-.64zm-1.35 3.5l1.5.5-.1.25-1.5-.5zm-1 3.62l1.54.32v.27l-1.5-.4z"/>
    <path fill-rule="evenodd" d="M62.08 72.2l1.53.32v.27l-1.5-.4z"/>
    <text x="69.13" y="80.94" stroke-width=".04" style="line-height:125%" font-size="3.17" font-family="sans-serif" letter-spacing="0" word-spacing="0">
      <tspan x="69.13" y="80.94">9</tspan>
    </text>
    <text x="72.75" y="94.44" stroke-width=".04" style="line-height:125%" font-size="3.17" font-family="sans-serif" letter-spacing="0" word-spacing="0">
      <tspan x="72.75" y="94.44">8</tspan>
    </text>
    <text x="82.56" y="104.24" stroke-width=".04" style="line-height:125%" font-size="3.17" font-family="sans-serif" letter-spacing="0" word-spacing="0">
      <tspan x="82.56" y="104.24">7</tspan>
    </text>
    <text x="96.08" y="107.83" stroke-width=".04" style="line-height:125%" font-size="3.17" font-family="sans-serif" letter-spacing="0" word-spacing="0">
      <tspan x="96.08" y="107.83">6</tspan>
    </text>
    <text x="109.55" y="104.27" stroke-width=".04" style="line-height:125%" font-size="3.17" font-family="sans-serif" letter-spacing="0" word-spacing="0">
      <tspan x="109.55" y="104.27">5</tspan>
    </text>
    <text x="119.64" y="94.48" stroke-width=".04" style="line-height:125%" font-size="3.17" font-family="sans-serif" letter-spacing="0" word-spacing="0">
      <tspan x="119.64" y="94.48">4</tspan>
    </text>
    <text x="123.06" y="80.94" stroke-width=".04" style="line-height:125%" font-size="3.17" font-family="sans-serif" letter-spacing="0" word-spacing="0">
      <tspan x="123.06" y="80.94">3</tspan>
    </text>
    <text x="119.39" y="67.46" stroke-width=".04" style="line-height:125%" font-size="3.17" font-family="sans-serif" letter-spacing="0" word-spacing="0">
      <tspan x="119.39" y="67.46">2</tspan>
    </text>
    <text x="109.55" y="57.55" stroke-width=".04" style="line-height:125%" font-size="3.17" font-family="sans-serif" letter-spacing="0" word-spacing="0">
      <tspan x="109.55" y="57.55">1</tspan>
    </text>
    <text x="95.05" y="55.06" stroke-width=".04" style="line-height:125%" font-size="3.17" font-family="sans-serif" letter-spacing="0" word-spacing="0">
      <tspan x="95.05" y="55.06">12</tspan>
    </text>
    <text x="82.05" y="58.64" stroke-width=".04" style="line-height:125%" font-size="3.17" font-family="sans-serif" letter-spacing="0" word-spacing="0">
      <tspan x="82.05" y="58.64">11</tspan>
    </text>
    <text x="72.63" y="68.02" stroke-width=".04" style="line-height:125%" font-size="3.17" font-family="sans-serif" letter-spacing="0" word-spacing="0">
      <tspan x="72.63" y="68.02">10</tspan>
    </text>
  </g>
</svg>
